<svg width="1280" height="640" viewBox="0 0 1280 640" fill="none" xmlns="http://www.w3.org/2000/svg">
  <defs>
    <linearGradient id="bg" x1="52" y1="40" x2="1176" y2="608" gradientUnits="userSpaceOnUse">
      <stop stop-color="#0F172A"/>
      <stop offset="0.45" stop-color="#133742"/>
      <stop offset="1" stop-color="#14532D"/>
    </linearGradient>
    <linearGradient id="panel" x1="70" y1="84" x2="1098" y2="562" gradientUnits="userSpaceOnUse">
      <stop stop-color="white" stop-opacity="0.14"/>
      <stop offset="1" stop-color="white" stop-opacity="0.05"/>
    </linearGradient>
    <linearGradient id="gold" x1="138" y1="133" x2="326" y2="328" gradientUnits="userSpaceOnUse">
      <stop stop-color="#FBBF24"/>
      <stop offset="1" stop-color="#F97316"/>
    </linearGradient>
    <linearGradient id="robe" x1="161" y1="148" x2="286" y2="300" gradientUnits="userSpaceOnUse">
      <stop stop-color="#1E293B"/>
      <stop offset="1" stop-color="#020617"/>
    </linearGradient>
    <linearGradient id="orb" x1="860" y1="19" x2="1094" y2="239" gradientUnits="userSpaceOnUse">
      <stop stop-color="#22C55E" stop-opacity="0.22"/>
      <stop offset="1" stop-color="#22C55E" stop-opacity="0.04"/>
    </linearGradient>
    <linearGradient id="orb2" x1="27" y1="407" x2="281" y2="649" gradientUnits="userSpaceOnUse">
      <stop stop-color="#38BDF8" stop-opacity="0.18"/>
      <stop offset="1" stop-color="#38BDF8" stop-opacity="0.03"/>
    </linearGradient>
    <filter id="softGlow" x="48" y="62" width="1186" height="520" filterUnits="userSpaceOnUse" color-interpolation-filters="sRGB">
      <feFlood flood-opacity="0" result="BackgroundImageFix"/>
      <feBlend mode="normal" in="SourceGraphic" in2="BackgroundImageFix" result="shape"/>
      <feGaussianBlur stdDeviation="18" result="effect1_foregroundBlur"/>
    </filter>
  </defs>

  <rect width="1280" height="640" rx="34" fill="url(#bg)"/>
  <circle cx="1097" cy="112" r="182" fill="url(#orb)"/>
  <circle cx="93" cy="542" r="182" fill="url(#orb2)"/>

  <g filter="url(#softGlow)">
    <rect x="56" y="64" width="1148" height="512" rx="30" fill="url(#panel)" stroke="rgba(255,255,255,0.12)"/>
  </g>

  <g transform="translate(110 122)">
    <rect x="0" y="0" width="220" height="220" rx="42" fill="#020B16" stroke="#263244" stroke-width="2"/>
    <path d="M126 23C164 41 189 76 193 123C196 158 181 195 149 224L126 245L102 224C70 195 56 159 60 123C63 76 88 41 126 23Z" fill="url(#gold)"/>
    <path d="M126 57C154 69 172 94 175 126C177 151 167 176 145 197L126 213L107 197C85 176 75 151 77 126C80 94 98 69 126 57Z" fill="#D48B11"/>
    <path d="M126 75C147 85 161 103 163 127C164 145 158 161 144 177L126 191L108 177C94 161 88 145 89 127C91 103 105 85 126 75Z" fill="#F8FAFC"/>
    <ellipse cx="126" cy="127" rx="17" ry="19" fill="#1E293B"/>
    <path d="M210 159C220 159 228 167 228 177C228 187 220 195 210 195H172C162 195 154 187 154 177C154 167 162 159 172 159H210Z" fill="#F59E0B"/>
    <path d="M210 192C220 192 228 200 228 210C228 220 220 228 210 228H160C150 228 142 220 142 210C142 200 150 192 160 192H210Z" fill="#FB923C"/>
  </g>

  <g transform="translate(98 112)">
    <path d="M90 74C111 45 145 28 182 28C219 28 253 45 274 74L294 101V232L251 278L209 236L184 260L160 236L112 281L70 239V101L90 74Z" fill="url(#robe)" fill-opacity="0.95"/>
    <path d="M106 88C123 63 151 49 182 49C213 49 241 63 258 88L276 115V217L245 253L214 225L183 250L151 225L121 255L88 222V115L106 88Z" fill="#0B1220"/>
    <path d="M131 119C139 92 158 75 182 75C206 75 225 92 233 119L243 153L226 181L209 210L183 228L155 210L138 181L121 153L131 119Z" fill="#F4D9B6"/>
    <path d="M129 132C138 101 157 74 183 59C209 74 228 101 237 132L228 110C210 98 197 93 183 93C169 93 156 98 138 110L129 132Z" fill="#E8B26C"/>
    <path d="M121 123C137 80 160 59 183 52C206 59 228 80 245 123L230 110C214 100 198 95 183 95C168 95 152 100 136 110L121 123Z" fill="#F59E0B"/>
    <path d="M139 111C150 84 166 67 183 61C200 67 216 84 227 111L218 103C207 96 195 93 183 93C171 93 159 96 148 103L139 111Z" fill="#FCD34D"/>
    <path d="M148 142C157 136 168 133 183 133C198 133 209 136 218 142L214 150C205 146 196 145 183 145C170 145 161 146 152 150L148 142Z" fill="#1E293B"/>
    <path d="M159 165C164 160 170 158 176 158C182 158 187 160 191 165L183 172L176 165L170 172L159 165Z" fill="#FB7185"/>
    <path d="M152 126C159 122 165 121 171 121C177 121 183 122 189 126" stroke="#1E293B" stroke-width="6" stroke-linecap="round"/>
    <path d="M196 126C203 122 209 121 215 121C221 121 227 122 233 126" stroke="#1E293B" stroke-width="6" stroke-linecap="round"/>
    <circle cx="169" cy="134" r="7" fill="#0F172A"/>
    <circle cx="214" cy="134" r="7" fill="#0F172A"/>
    <path d="M111 110L90 88L66 118L72 147L97 130L111 110Z" fill="#F59E0B"/>
    <path d="M255 110L276 88L300 118L294 147L269 130L255 110Z" fill="#F59E0B"/>
    <path d="M78 145L58 161L66 197L94 195L102 166L78 145Z" fill="#F97316"/>
    <path d="M288 145L308 161L300 197L272 195L264 166L288 145Z" fill="#F97316"/>
  </g>

  <g transform="translate(394 150)">
    <text x="0" y="90" fill="#F8FAFC" font-size="76" font-family="Segoe UI, Arial, sans-serif" font-weight="800">Shukra Operator</text>
    <text x="0" y="150" fill="#93C5FD" font-size="28" font-family="Segoe UI, Arial, sans-serif" font-weight="700">One YAML. Complete Environment.</text>
    <text x="0" y="220" fill="#F8FAFC" font-size="30" font-family="Segoe UI, Arial, sans-serif" font-weight="600">The Sage for full-stack application environments on Kubernetes.</text>
    <text x="0" y="274" fill="#D8E5EC" font-size="26" font-family="Segoe UI, Arial, sans-serif">Deployments, services, ingress, autoscaling, migration, backup, restore, and security.</text>

    <g transform="translate(0 332)">
      <rect x="0" y="0" width="286" height="66" rx="20" fill="#111827" stroke="#1F2937"/>
      <circle cx="34" cy="33" r="8" fill="#22C55E"/>
      <text x="56" y="41" fill="#F8FAFC" font-size="24" font-family="Segoe UI, Arial, sans-serif">Production-ready operator</text>
    </g>

    <g transform="translate(308 332)">
      <rect x="0" y="0" width="226" height="66" rx="20" fill="#111827" stroke="#1F2937"/>
      <circle cx="34" cy="33" r="8" fill="#38BDF8"/>
      <text x="56" y="41" fill="#F8FAFC" font-size="24" font-family="Segoe UI, Arial, sans-serif">CLI companion</text>
    </g>

    <g transform="translate(554 332)">
      <rect x="0" y="0" width="246" height="66" rx="20" fill="#111827" stroke="#1F2937"/>
      <circle cx="34" cy="33" r="8" fill="#F59E0B"/>
      <text x="56" y="41" fill="#F8FAFC" font-size="24" font-family="Segoe UI, Arial, sans-serif">OCI chart + GHCR</text>
    </g>
  </g>
</svg>
